# Blender v2.92.0 OBJ File: ''
# www.blender.org
mtllib palette_LoD_3.mtl
o SM_WoodenPalette_Mesh
v -0.605000 0.145000 -0.625000
v 0.615769 0.160000 -0.620385
v 0.605000 0.145000 -0.625000
v 0.625000 0.145000 -0.605000
v 0.000000 0.152500 -0.455000
v -0.620385 0.160000 -0.615769
v -0.625000 0.145000 -0.605000
v -0.625000 0.155000 -0.409000
v 0.625000 0.152500 -0.324000
v -0.625000 0.150000 -0.239000
v -0.625000 0.155000 -0.193000
v 0.625000 0.152500 -0.108000
v -0.625000 0.150000 -0.023000
v -0.625000 0.152500 0.108000
v 0.625000 0.150000 0.023000
v 0.625000 0.155000 0.193000
v -0.625000 0.152500 0.324000
v 0.625000 0.150000 0.239000
v 0.625000 0.155000 0.409000
v 0.000000 0.152500 0.455000
v 0.620385 0.160000 0.615769
v 0.625000 0.145000 0.605000
v 0.605000 0.145000 0.625000
v -0.615769 0.160000 0.620385
v -0.605000 0.145000 0.625000
v -0.625000 0.145000 0.605000
v -0.625000 0.120000 0.605000
v -0.625000 0.120000 -0.605000
v -0.605000 0.120000 -0.625000
v -0.455000 0.145000 -0.625000
v -0.455000 0.120000 -0.625000
v -0.455000 0.145000 0.625000
v -0.455000 0.120000 0.625000
v -0.605000 0.120000 0.625000
v -0.085000 0.120000 0.625000
v -0.028333 0.145000 -0.625000
v -0.085000 0.120000 -0.625000
v 0.085000 0.120000 -0.625000
v 0.028333 0.145000 0.625000
v 0.085000 0.120000 0.625000
v 0.455000 0.120000 0.625000
v 0.455000 0.145000 0.625000
v 0.455000 0.145000 -0.625000
v 0.455000 0.120000 -0.625000
v 0.605000 0.120000 -0.625000
v 0.625000 0.120000 -0.605000
v 0.625000 0.120000 0.605000
v 0.605000 0.120000 0.625000
v -0.625000 0.000000 0.455000
v -0.625000 0.025000 0.455000
v -0.625000 0.025000 -0.455000
v -0.625000 -0.000000 -0.455000
v -0.455000 0.025000 -0.455000
v -0.455000 -0.000000 -0.455000
v -0.455000 0.025000 0.455000
v -0.455000 0.000000 0.455000
v -0.028333 0.000000 0.455000
v -0.085000 0.025000 0.455000
v -0.085000 0.025000 -0.455000
v 0.085000 0.025000 -0.455000
v 0.028333 -0.000000 -0.455000
v 0.085000 0.025000 0.455000
v 0.455000 0.000000 0.455000
v 0.455000 0.025000 0.455000
v 0.455000 0.025000 -0.455000
v 0.455000 -0.000000 -0.455000
v 0.625000 0.025000 -0.455000
v 0.625000 -0.000000 -0.455000
v 0.625000 0.025000 0.455000
v 0.625000 0.000000 0.455000
v -0.615769 -0.000000 -0.620385
v -0.605000 0.025000 -0.625000
v 0.605000 0.025000 -0.625000
v 0.620385 -0.000000 -0.615769
v 0.625000 0.025000 -0.605000
v -0.625000 0.025000 -0.605000
v 0.625000 0.025000 0.605000
v 0.615769 0.000000 0.620385
v 0.605000 0.025000 0.625000
v -0.605000 0.025000 0.625000
v -0.620385 0.000000 0.615769
v -0.625000 0.025000 0.605000
v -0.455000 0.025000 -0.625000
v -0.511667 0.120000 -0.455000
v -0.085000 0.120000 -0.455000
v 0.051000 0.048750 -0.582500
v 0.455000 0.025000 -0.625000
v 0.568333 0.120000 -0.455000
v -0.625000 0.088333 0.085000
v -0.540000 0.072500 -0.085000
v -0.455000 0.056667 0.085000
v -0.085000 0.088333 0.085000
v 0.000000 0.072500 -0.085000
v 0.085000 0.056667 0.085000
v 0.455000 0.088333 0.085000
v 0.540000 0.072500 -0.085000
v 0.625000 0.056667 0.085000
v -0.568333 0.120000 0.455000
v -0.455000 0.025000 0.625000
v -0.051000 0.096250 0.497500
v 0.085000 0.025000 0.625000
v 0.455000 0.025000 0.625000
v 0.511667 0.120000 0.455000
vt 0.442383 0.660645
vt 0.438176 0.655273
vt 0.864446 0.655273
vt 0.861816 0.660645
vt 0.474609 0.972946
vt 0.474609 0.967773
vt 0.525879 0.969843
vt 0.660156 0.970877
vt 0.711426 0.967773
vt 0.711426 0.972946
vt 0.001953 0.423828
vt 0.001953 0.365234
vt 0.432617 0.394531
vt 0.001953 0.302734
vt 0.001953 0.244141
vt 0.432617 0.273438
vt 0.435547 0.302734
vt 0.435547 0.244141
vt 0.866211 0.273438
vt 0.001953 0.121094
vt 0.001953 0.062500
vt 0.432617 0.091797
vt 0.435547 0.091797
vt 0.866211 0.062500
vt 0.866211 0.121094
vt 0.435547 0.394531
vt 0.866211 0.365234
vt 0.866211 0.423828
vt 0.001953 0.333984
vt 0.432617 0.304688
vt 0.432617 0.363281
vt 0.001953 0.152344
vt 0.432617 0.123047
vt 0.432617 0.181641
vt 0.320312 0.966077
vt 0.375770 0.962891
vt 0.373047 0.968201
vt 0.001953 0.697754
vt 0.001953 0.692383
vt 0.422795 0.692383
vt 0.420166 0.697754
vt 0.121094 0.973923
vt 0.121094 0.968750
vt 0.172729 0.970819
vt 0.431641 0.706055
vt 0.431641 0.697266
vt 0.848145 0.697266
vt 0.848145 0.706055
vt 0.743164 0.968796
vt 0.743164 0.959961
vt 0.795898 0.959961
vt 0.795898 0.968796
vt 0.001953 0.648438
vt 0.001953 0.639648
vt 0.432617 0.639648
vt 0.432617 0.648438
vt 0.306641 0.853516
vt 0.315430 0.853516
vt 0.315430 0.906494
vt 0.306641 0.906494
vt 0.435547 0.626953
vt 0.435547 0.618164
vt 0.866211 0.618164
vt 0.866211 0.626953
vt 0.724609 0.861328
vt 0.732910 0.880859
vt 0.724609 0.919922
vt 0.001953 0.616211
vt 0.001953 0.607422
vt 0.432617 0.607422
vt 0.432617 0.616211
vt 0.125000 0.958832
vt 0.144491 0.950195
vt 0.183472 0.958832
vt 0.929688 0.001953
vt 0.987793 0.001953
vt 0.987793 0.433105
vt 0.929688 0.433105
vt 0.435547 0.616211
vt 0.435547 0.607422
vt 0.866211 0.607422
vt 0.866211 0.616211
vt 0.242188 0.968796
vt 0.242188 0.959961
vt 0.294922 0.959961
vt 0.294922 0.968796
vt 0.001953 0.690430
vt 0.001953 0.681641
vt 0.420166 0.681641
vt 0.420166 0.690430
vt 0.183594 0.969559
vt 0.183594 0.960938
vt 0.235229 0.960938
vt 0.235229 0.969559
vt 0.001953 0.829956
vt 0.001953 0.821289
vt 0.315430 0.821289
vt 0.315430 0.829956
vt 0.055664 0.968597
vt 0.055664 0.959961
vt 0.114197 0.959961
vt 0.114197 0.968597
vt 0.425781 0.837769
vt 0.425781 0.829102
vt 0.739258 0.829102
vt 0.739258 0.837769
vt 0.386719 0.881836
vt 0.395264 0.881836
vt 0.395264 0.940430
vt 0.386719 0.940430
vt 0.001953 0.819336
vt 0.001953 0.760742
vt 0.315430 0.760742
vt 0.315430 0.819336
vt 0.873047 0.435547
vt 0.931152 0.435547
vt 0.931152 0.749268
vt 0.873047 0.749268
vt 0.001953 0.840698
vt 0.001953 0.832031
vt 0.315430 0.832031
vt 0.315430 0.840698
vt 0.397461 0.920898
vt 0.406006 0.881836
vt 0.406006 0.940430
vt 0.001953 0.851440
vt 0.001953 0.842773
vt 0.315430 0.842773
vt 0.315430 0.851440
vt 0.094686 0.957855
vt 0.055664 0.949219
vt 0.114197 0.949219
vt 0.427734 0.827148
vt 0.427734 0.768555
vt 0.741211 0.768555
vt 0.741211 0.827148
vt 0.421875 0.859253
vt 0.421875 0.850586
vt 0.735352 0.850586
vt 0.735352 0.859253
vt 0.322266 0.960785
vt 0.322266 0.952148
vt 0.380615 0.952148
vt 0.380615 0.960785
vt 0.423828 0.848511
vt 0.423828 0.839844
vt 0.737305 0.839844
vt 0.737305 0.848511
vt 0.244141 0.957855
vt 0.244141 0.949219
vt 0.302490 0.949219
vt 0.302490 0.957855
vt 0.429688 0.766602
vt 0.429688 0.708008
vt 0.743164 0.708008
vt 0.743164 0.766602
vt 0.001953 0.758789
vt 0.001953 0.700195
vt 0.315430 0.700195
vt 0.315430 0.758789
vt 0.439754 0.637695
vt 0.442383 0.628906
vt 0.861816 0.628906
vt 0.866023 0.637695
vt 0.185547 0.958832
vt 0.185547 0.950195
vt 0.237183 0.950195
vt 0.237183 0.958832
vt 0.001953 0.626953
vt 0.001953 0.618164
vt 0.432617 0.618164
vt 0.432617 0.626953
vt 0.722656 0.921875
vt 0.730957 0.921875
vt 0.730957 0.973572
vt 0.722656 0.973572
vt 0.001953 0.637695
vt 0.001953 0.628906
vt 0.432617 0.628906
vt 0.432617 0.637695
vt 0.800781 0.968796
vt 0.800781 0.959961
vt 0.853516 0.959961
vt 0.857722 0.968796
vt 0.433594 0.695312
vt 0.433594 0.686523
vt 0.851562 0.686523
vt 0.855769 0.695312
vt 0.306641 0.916016
vt 0.315186 0.916016
vt 0.315186 0.967712
vt 0.306641 0.967712
vt 0.189453 0.946808
vt 0.189453 0.914062
vt 0.241089 0.914062
vt 0.241089 0.946808
vt 0.875977 0.941742
vt 0.875977 0.908203
vt 0.928711 0.908203
vt 0.928711 0.941742
vt 0.931641 0.940948
vt 0.931641 0.908203
vt 0.989746 0.908203
vt 0.989746 0.940948
vt 0.001953 0.946808
vt 0.021474 0.914062
vt 0.060516 0.946808
vt 0.062500 0.946808
vt 0.062500 0.914062
vt 0.121033 0.914062
vt 0.121033 0.946808
vt 0.382812 0.803275
vt 0.415527 0.760742
vt 0.415527 0.819336
vt 0.599609 0.964386
vt 0.599609 0.931641
vt 0.657715 0.931641
vt 0.657715 0.964386
vt 0.060516 0.912109
vt 0.001953 0.912109
vt 0.044464 0.853516
vt 0.062500 0.912109
vt 0.121033 0.853516
vt 0.121033 0.912109
vt 0.417969 0.929260
vt 0.417969 0.896484
vt 0.476318 0.896484
vt 0.476318 0.929260
vt 0.126953 0.947601
vt 0.126953 0.914062
vt 0.179810 0.914062
vt 0.179810 0.947601
vt 0.001953 0.981964
vt 0.001953 0.949219
vt 0.053619 0.949219
vt 0.053619 0.981964
vt 0.539062 0.964386
vt 0.558431 0.931641
vt 0.597168 0.964386
vt 0.804199 0.766602
vt 0.746094 0.766602
vt 0.775146 0.708008
vt 0.742188 0.887695
vt 0.742188 0.829102
vt 0.800293 0.858398
vt 0.864746 0.766602
vt 0.806641 0.766602
vt 0.835693 0.708008
vt 0.804688 0.768555
vt 0.862793 0.768555
vt 0.833740 0.827148
vt 0.929199 0.810547
vt 0.871094 0.810547
vt 0.900146 0.751953
vt 0.744141 0.768555
vt 0.802246 0.768555
vt 0.773193 0.827148
vt 0.931641 0.976105
vt 0.931641 0.943359
vt 0.982910 0.943359
vt 0.982910 0.976105
vt 0.738281 0.957550
vt 0.757650 0.924805
vt 0.796387 0.957550
vt 0.802734 0.957550
vt 0.802734 0.924805
vt 0.860840 0.924805
vt 0.860840 0.957550
vt 0.662109 0.894897
vt 0.662109 0.861328
vt 0.714844 0.861328
vt 0.714844 0.894897
vt 0.660156 0.930237
vt 0.676083 0.897461
vt 0.718262 0.930237
vt 0.416016 0.964386
vt 0.416016 0.931641
vt 0.474365 0.931641
vt 0.474365 0.964386
vt 0.871094 0.905823
vt 0.871094 0.873047
vt 0.929199 0.873047
vt 0.929199 0.905823
vt 0.242065 0.853516
vt 0.242065 0.912109
vt 0.183594 0.912109
vt 0.183594 0.853516
vt 0.931641 0.751953
vt 0.989746 0.751953
vt 0.947568 0.810547
vt 0.804688 0.922424
vt 0.804688 0.889648
vt 0.862793 0.889648
vt 0.862793 0.922424
vt 0.478516 0.929260
vt 0.497884 0.896484
vt 0.536621 0.929260
vt 0.476562 0.965179
vt 0.476562 0.931641
vt 0.529297 0.931641
vt 0.529297 0.965179
vt 0.867188 0.977081
vt 0.867188 0.944336
vt 0.918457 0.944336
vt 0.918457 0.977081
vt 0.868652 0.660645
vt 0.435547 0.660645
vt 0.380127 0.968201
vt 0.427002 0.697754
vt 0.736328 0.968796
vt 0.736328 0.959961
vt 0.315430 0.913513
vt 0.306641 0.913513
vt 0.302002 0.959961
vt 0.302002 0.968796
vt 0.427002 0.681641
vt 0.427002 0.690430
vt 0.868652 0.628906
vt 0.435547 0.628906
vt 0.860352 0.959961
vt 0.858398 0.686523
vt 0.869141 0.941742
vt 0.869141 0.908203
vt 0.186890 0.914062
vt 0.186890 0.947601
vt 0.721680 0.861328
vt 0.721680 0.894897
vt 0.536133 0.931641
vt 0.536133 0.965179
vt 0.433594 0.053711
vt 0.426514 0.060547
vt 0.218223 0.002441
vt 0.009743 0.060547
vt 0.002851 0.053711
vt 0.438176 0.056340
vt 0.650879 0.001953
vt 0.862004 0.057918
vt 0.435547 0.174805
vt 0.650879 0.123047
vt 0.442383 0.181641
vt 0.859375 0.181641
vt 0.866211 0.174805
vt 0.218223 0.184082
vt 0.429237 0.239558
vt 0.005502 0.237981
vt 0.867188 0.235352
vt 0.859863 0.242188
vt 0.867188 0.184082
vt 0.443115 0.242188
vt 0.436279 0.184082
vt 0.436279 0.235352
vt 0.875977 0.001953
vt 0.927246 0.001953
vt 0.869141 0.009277
vt 0.927246 0.433105
vt 0.869141 0.426270
vt 0.875977 0.433105
vt 0.001953 0.598633
vt 0.001953 0.546875
vt 0.008842 0.605469
vt 0.432617 0.546875
vt 0.425781 0.605469
vt 0.432617 0.598633
vt 0.867188 0.598633
vt 0.859863 0.605469
vt 0.867188 0.547119
vt 0.443115 0.605469
vt 0.436279 0.547119
vt 0.436279 0.598633
vt 0.867188 0.426270
vt 0.862680 0.481746
vt 0.438909 0.480168
vt 0.436279 0.426270
vt 0.001953 0.538086
vt 0.001953 0.486328
vt 0.008842 0.544922
vt 0.432617 0.486328
vt 0.425781 0.544922
vt 0.432617 0.538086
vt 0.438176 0.359075
vt 0.435547 0.304688
vt 0.866211 0.304688
vt 0.862004 0.360652
vt 0.867188 0.538086
vt 0.859863 0.544922
vt 0.867188 0.486816
vt 0.443115 0.544922
vt 0.436279 0.486816
vt 0.436279 0.538086
vt 0.927734 0.871094
vt 0.875977 0.871094
vt 0.927246 0.812622
vt 0.869141 0.864258
vt 0.869141 0.812622
vt 0.860840 0.887695
vt 0.809570 0.887695
vt 0.841471 0.829183
vt 0.802734 0.880798
vt 0.244141 0.905212
vt 0.244141 0.853516
vt 0.302490 0.853638
vt 0.250977 0.912109
vt 0.302490 0.912109
vt 0.929688 0.864258
vt 0.929688 0.812622
vt 0.987793 0.851562
vt 0.936523 0.871094
vt 0.378662 0.760864
vt 0.378906 0.819336
vt 0.327148 0.819336
vt 0.320312 0.812500
vt 0.320312 0.760864
vt 0.162028 0.853638
vt 0.129883 0.912109
vt 0.123047 0.905273
vt 0.181641 0.912109
vt 0.322266 0.821411
vt 0.380615 0.821411
vt 0.322266 0.873047
vt 0.329102 0.879883
vt 0.380859 0.879883
vt 0.376953 0.739339
vt 0.325195 0.758789
vt 0.318359 0.751953
vt 0.318359 0.700439
vn -0.0032 0.5205 -0.8538
vn -0.0032 0.5217 -0.8531
vn 0.4571 -0.0533 -0.8878
vn 0.0358 0.0176 -0.9992
vn 0.2331 -0.0208 0.9722
vn 0.1450 0.8044 0.5762
vn 0.0020 -0.0009 1.0000
vn -0.8179 0.5435 0.1886
vn -0.7683 0.5121 0.3840
vn -0.9114 0.2187 -0.3485
vn -0.8193 0.2032 -0.5361
vn 0.8677 0.2117 -0.4498
vn -0.9717 0.2332 -0.0357
vn -0.9297 0.2306 -0.2871
vn 0.9581 0.2338 -0.1655
vn -0.9581 0.2338 0.1655
vn 0.9717 0.2332 0.0357
vn 0.9297 0.2306 0.2871
vn -0.8677 0.2117 0.4498
vn 0.9114 0.2187 0.3485
vn 0.8193 0.2032 0.5361
vn -0.0020 -0.0009 -1.0000
vn 0.8179 0.5435 -0.1886
vn 0.7683 0.5121 -0.3840
vn 0.0032 0.5205 0.8538
vn 0.0032 0.5217 0.8531
vn -0.4571 -0.0533 0.8878
vn -0.2308 0.1309 0.9641
vn -0.3484 0.2191 -0.9114
vn -0.1450 0.8044 -0.5762
vn -1.0000 0.0000 0.0000
vn 0.0000 0.0000 -1.0000
vn 0.7071 0.0002 -0.7071
vn 0.7071 0.0000 -0.7071
vn 1.0000 0.0000 0.0000
vn 0.7071 0.0002 0.7071
vn 0.7071 0.0000 0.7071
vn 0.0000 0.0000 1.0000
vn -0.2215 0.9751 0.0095
vn 0.0780 0.7601 0.6451
vn -0.0780 0.7601 -0.6451
vn -0.3902 0.8845 -0.2557
vn 0.2215 0.9751 -0.0095
vn 0.3902 0.8845 0.2557
vn 0.0000 -1.0000 0.0000
vn 0.3827 -0.0000 -0.9239
vn 0.0000 -0.7071 -0.7071
vn -0.7071 -0.7071 0.0002
vn -0.0000 0.7071 -0.7071
vn 0.0000 1.0000 -0.0000
vn -0.7071 0.7071 0.0000
vn -0.0789 -0.7596 0.6456
vn -0.3902 -0.8845 0.2557
vn -0.2237 -0.9746 -0.0128
vn 0.0789 -0.7596 -0.6456
vn 0.3902 -0.8845 -0.2557
vn 0.2237 -0.9746 0.0128
vn 0.7071 -0.7071 0.0000
vn 0.7071 0.7071 0.0002
vn -0.3539 -0.0220 -0.9350
vn -0.0876 0.0581 -0.9945
vn 0.0035 -0.3429 -0.9394
vn 0.0035 -0.3445 -0.9388
vn 0.5413 -0.8408 -0.0021
vn 0.9834 -0.1815 0.0000
vn 0.7247 0.6889 -0.0188
vn 0.3155 -0.9216 0.2261
vn -0.3520 -0.9296 -0.1096
vn -0.9469 -0.3171 -0.0529
vn -0.4469 -0.8942 -0.0249
vn 0.0002 -0.7071 -0.7071
vn -0.0002 0.7071 -0.7071
vn 0.7071 -0.0002 -0.7071
vn 0.1045 -0.9945 0.0058
vn 0.9469 -0.3171 0.0529
vn 0.4469 -0.8942 0.0249
vn 0.3539 -0.0220 0.9350
vn 0.2827 -0.0550 0.9576
vn -0.0035 -0.3429 0.9394
vn -0.0035 -0.3445 0.9388
vn -0.5413 -0.8408 0.0021
vn -0.9834 -0.1815 0.0000
vn -0.7301 -0.0131 -0.6832
vn -0.7133 -0.7006 0.0205
vn -0.5779 0.6895 0.4367
vn -0.3329 0.9088 0.2515
vn -0.2035 0.9669 0.1538
vn -0.3827 0.0000 -0.9239
vn 0.9586 0.1860 0.2156
vn 0.8944 -0.0002 -0.4472
vn 0.6245 0.2416 0.7427
vn 0.7176 0.4280 0.5494
vn -0.8477 -0.4631 -0.2588
vn -0.6189 -0.6857 -0.3832
vn -0.2916 -0.8350 -0.4666
vn 0.9151 -0.3981 0.0647
vn 0.0000 -0.5123 -0.8588
vn 0.8245 0.3265 -0.4621
vn 0.8588 -0.2726 0.4338
vn 0.9654 -0.0151 -0.2603
vn 0.2628 0.4703 0.8424
vn 0.0000 -0.9831 -0.1831
vn 0.2888 0.9128 0.2888
vn -0.7774 0.5490 0.3068
vn -0.5905 0.7045 0.3937
vn -0.9268 0.3279 0.1833
vn 0.9355 0.0000 0.3534
vn 0.5787 0.7857 0.2186
vn 0.4592 0.8712 0.1735
vn 0.8588 0.5123 0.0000
vn -0.9757 0.1215 0.1823
vn -0.9813 0.1387 0.1334
vn -0.9792 0.1315 -0.1541
vn 0.6396 0.4264 0.6396
vn -0.5698 0.5922 0.5698
vn 0.0000 0.6489 -0.7608
vn 0.9869 0.0894 0.1342
vn 0.9655 0.1874 0.1804
vn 0.9792 0.1315 -0.1541
vn -0.9355 0.0000 -0.3534
vn -0.5787 0.7857 -0.2186
vn -0.4592 0.8712 -0.1735
vn -0.8588 0.5123 0.0000
vn -0.6787 -0.1986 -0.7071
vn 0.7774 0.5490 -0.3068
vn 0.5905 0.7045 -0.3937
vn 0.7376 0.1697 0.6536
vn 0.7071 -0.0002 0.7071
vn -0.3827 -0.0000 0.9239
vn -0.8245 -0.3265 -0.4621
vn -0.9151 0.3981 0.0647
vn 0.0000 0.5123 -0.8588
vn 0.6189 0.6857 -0.3832
vn 0.2916 0.8350 -0.4666
vn 0.8477 0.4631 -0.2588
vn -0.2628 -0.4703 0.8424
vn -0.8588 0.2726 0.4338
vn -0.9654 0.0151 -0.2603
vn -0.2888 -0.9128 0.2888
vn 0.0000 0.9831 -0.1831
vn -0.9586 0.1860 -0.2156
vn -0.9487 0.0000 -0.3162
vn -0.6245 0.2416 -0.7427
vn -0.7176 0.4280 -0.5494
vn 0.5905 0.3890 -0.7071
vn 0.5779 0.6895 -0.4367
vn 0.3329 0.9088 -0.2515
vn 0.2035 0.9669 -0.1538
vn 0.6791 -0.2786 -0.6791
vn -0.6791 -0.2786 -0.6791
vn 0.6791 -0.2786 0.6791
vn -0.6791 -0.2786 0.6791
vn -0.7071 0.0000 -0.7071
vn -0.7071 0.0000 0.7071
vn -0.9239 -0.0000 0.3827
vn 0.6966 0.1715 -0.6966
vn -0.6966 0.1715 -0.6966
vn 0.6966 0.1715 0.6966
vn -0.6966 0.1715 0.6966
vn -0.4126 0.0113 0.9109
vn 0.0097 -0.9999 0.0097
vn 0.0086 -0.9999 0.0137
vn -0.0086 -0.9999 0.0137
vn 0.0086 -0.9999 -0.0137
vn -0.0086 -0.9999 -0.0137
vn -0.0097 -0.9999 -0.0097
usemtl WorldGridMaterial
s 1
f 1/1/1 6/2/2 2/3/3
f 1/1/1 2/3/3 3/4/4
f 4/5/5 2/6/6 5/7/7
f 5/8/7 6/9/8 7/10/9
f 10/11/10 8/12/11 9/13/12
f 8/14/11 10/15/10 9/16/12
f 13/17/13 11/18/14 12/19/15
f 11/20/14 13/21/13 12/22/15
f 14/23/16 15/24/17 16/25/18
f 14/26/16 16/27/18 15/28/17
f 17/29/19 18/30/20 19/31/21
f 17/32/19 19/33/21 18/34/20
f 20/35/22 21/36/23 22/37/24
f 23/38/25 21/39/26 24/40/27
f 23/38/25 24/40/27 25/41/28
f 26/42/29 24/43/30 20/44/22
f 27/45/31 26/46/31 7/47/31
f 27/45/31 7/47/31 28/48/31
f 29/49/32 1/50/32 30/51/32
f 29/49/32 30/51/32 31/52/33
f 31/53/34 30/54/35 32/55/35
f 31/53/34 32/55/35 33/56/36
f 33/57/37 32/58/38 25/59/38
f 33/57/37 25/59/38 34/60/38
f 35/61/39 39/62/40 36/63/41
f 35/61/39 36/63/41 37/64/42
f 37/65/42 36/66/41 38/67/32
f 38/68/43 36/69/41 39/70/40
f 38/68/43 39/70/40 40/71/44
f 40/72/44 39/73/40 35/74/38
f 40/75/45 35/76/45 37/77/45
f 40/75/45 37/77/45 38/78/45
f 41/79/31 42/80/31 43/81/31
f 41/79/31 43/81/31 44/82/31
f 44/83/32 43/84/32 3/85/46
f 44/83/32 3/85/46 45/86/32
f 46/87/35 4/88/35 22/89/35
f 46/87/35 22/89/35 47/90/35
f 48/91/38 23/92/38 42/93/38
f 48/91/38 42/93/38 41/94/38
f 49/95/31 50/96/31 51/97/31
f 49/95/31 51/97/31 52/98/31
f 52/99/32 51/100/32 53/101/32
f 52/99/32 53/101/32 54/102/32
f 54/103/35 53/104/35 55/105/35
f 54/103/35 55/105/35 56/106/35
f 56/107/38 55/108/38 50/109/38
f 56/107/38 50/109/38 49/110/38
f 56/111/45 49/112/47 52/113/48
f 56/111/45 52/113/48 54/114/45
f 50/115/49 55/116/50 53/117/50
f 50/115/49 53/117/50 51/118/51
f 57/119/52 58/120/53 59/121/54
f 57/119/52 59/121/54 61/122/55
f 61/123/55 59/124/32 60/125/56
f 61/126/55 60/127/56 62/128/57
f 61/126/55 62/128/57 57/129/52
f 57/130/52 62/131/38 58/132/53
f 58/133/50 62/134/50 60/135/50
f 58/133/50 60/135/50 59/136/50
f 63/137/31 64/138/31 65/139/31
f 63/137/31 65/139/31 66/140/31
f 66/141/32 65/142/32 67/143/32
f 66/141/32 67/143/32 68/144/32
f 68/145/35 67/146/35 69/147/35
f 68/145/35 69/147/35 70/148/35
f 70/149/38 69/150/38 64/151/38
f 70/149/38 64/151/38 63/152/38
f 70/153/47 63/154/45 66/155/45
f 70/153/47 66/155/45 68/156/58
f 64/157/50 69/158/49 67/159/59
f 64/157/50 67/159/59 65/160/50
f 71/161/60 72/162/61 73/163/62
f 71/161/60 73/163/62 74/164/63
f 74/165/64 75/166/65 67/167/66
f 74/165/64 67/167/66 68/168/67
f 68/169/38 67/170/38 51/171/38
f 68/169/38 51/171/38 52/172/38
f 52/173/48 51/174/51 76/175/31
f 52/173/68 76/175/69 71/176/70
f 49/177/71 50/178/49 69/179/72
f 49/177/71 69/179/72 70/180/47
f 70/181/35 69/182/73 77/183/35
f 70/181/74 77/183/75 78/184/76
f 78/185/77 79/186/78 80/187/79
f 78/185/77 80/187/79 81/188/80
f 81/189/81 82/190/82 50/191/83
f 81/189/81 50/191/83 49/192/84
f 51/193/85 84/194/86 28/195/87
f 51/193/31 28/195/31 76/196/31
f 72/197/88 29/198/32 31/199/34
f 72/197/88 31/199/34 83/200/32
f 83/201/89 31/202/90 84/203/91
f 83/201/89 84/203/91 53/204/92
f 53/205/92 84/206/91 51/207/38
f 59/208/93 85/209/31 37/210/94
f 59/208/93 37/210/94 86/211/95
f 86/212/96 37/213/97 38/214/98
f 60/215/99 86/216/100 85/217/101
f 60/215/99 85/217/101 59/218/38
f 60/219/99 59/220/102 86/221/100
f 85/222/103 86/221/96 38/223/98
f 85/222/103 38/223/98 37/224/50
f 65/225/104 88/226/105 44/227/106
f 65/225/104 44/227/106 87/228/31
f 87/229/32 44/230/32 45/231/46
f 87/229/32 45/231/46 73/232/32
f 75/233/107 46/234/108 88/235/109
f 75/233/110 88/235/110 67/236/110
f 67/237/38 88/238/38 65/239/38
f 91/240/111 89/241/112 90/242/113
f 89/243/112 91/244/111 90/245/113
f 94/246/114 92/247/115 93/248/116
f 92/249/115 94/250/114 93/251/116
f 97/252/117 95/253/118 96/254/119
f 95/255/118 97/256/117 96/257/119
f 82/258/120 27/259/121 98/260/122
f 82/258/123 98/260/123 50/261/123
f 50/262/124 98/263/32 55/264/32
f 55/265/125 98/266/126 33/267/127
f 55/265/125 33/267/127 99/268/35
f 99/269/38 33/270/128 34/271/129
f 99/269/38 34/271/129 80/272/129
f 58/273/130 100/274/131 62/275/132
f 62/276/133 100/277/134 40/278/135
f 62/276/133 40/278/135 101/279/35
f 101/280/136 40/281/38 35/282/137
f 101/280/136 35/282/137 100/283/138
f 101/284/139 100/285/131 58/286/130
f 101/284/139 58/286/130 62/287/45
f 35/288/137 40/289/140 100/290/138
f 102/291/141 41/292/142 103/293/143
f 102/291/141 103/293/143 64/294/144
f 64/295/144 103/296/143 69/297/145
f 69/298/146 103/299/147 47/300/148
f 69/298/35 47/300/35 77/301/35
f 79/302/38 48/303/38 41/304/38
f 79/302/38 41/304/38 102/305/38
f 2/3/3 4/306/149 3/4/4
f 7/307/9 6/2/8 1/1/150
f 21/36/23 23/308/151 22/37/24
f 24/40/27 26/309/152 25/41/28
f 1/50/153 29/49/153 28/310/153
f 1/50/153 28/310/153 7/311/153
f 34/60/129 25/59/154 26/312/155
f 34/60/129 26/312/155 27/313/154
f 4/314/34 46/315/34 45/86/46
f 4/314/34 45/86/46 3/85/34
f 23/316/37 48/317/37 47/90/37
f 23/316/37 47/90/37 22/89/37
f 75/318/156 74/164/156 73/163/156
f 71/161/60 76/319/157 72/162/61
f 79/320/78 78/184/77 77/183/158
f 82/321/159 81/188/159 80/187/160
f 29/198/153 72/197/153 76/322/153
f 29/198/153 76/322/153 28/323/153
f 46/324/34 75/325/34 73/232/34
f 46/324/34 73/232/34 45/231/34
f 80/272/154 34/271/154 27/326/154
f 80/272/154 27/326/154 82/327/154
f 48/328/37 79/329/37 77/301/37
f 48/328/37 77/301/37 47/300/37
f 7/330/161 1/331/162 5/332/7
f 5/332/7 1/331/162 3/333/163
f 3/333/163 4/334/5 5/332/7
f 6/335/8 5/336/7 2/337/6
f 26/338/29 20/339/22 25/340/164
f 25/340/164 20/339/22 23/341/165
f 20/339/22 22/342/166 23/341/165
f 20/343/22 24/344/30 21/345/23
f 34/346/45 27/347/45 33/348/45
f 33/348/45 27/347/45 28/349/45
f 33/348/45 28/349/45 31/350/45
f 28/349/45 29/351/45 31/350/45
f 25/352/50 32/353/50 26/354/50
f 26/354/50 32/353/50 30/355/50
f 26/354/50 30/355/50 7/356/50
f 30/355/50 1/357/50 7/356/50
f 48/358/45 41/359/45 47/360/45
f 47/360/45 41/359/45 44/361/45
f 47/360/45 44/361/45 46/362/45
f 44/361/45 45/363/45 46/362/45
f 23/364/50 22/365/50 42/366/50
f 42/366/50 22/365/50 4/367/50
f 42/366/50 4/367/50 43/368/50
f 4/367/50 3/369/50 43/368/50
f 52/370/68 71/371/70 74/372/64
f 52/370/68 74/372/64 68/373/67
f 76/374/50 51/375/50 72/376/50
f 72/376/50 51/375/50 67/377/50
f 72/376/50 67/377/50 73/378/50
f 67/377/50 75/379/50 73/378/50
f 81/380/81 49/381/84 70/382/74
f 81/380/81 70/382/74 78/383/76
f 82/384/50 80/385/50 50/386/50
f 50/386/50 80/385/50 79/387/50
f 50/386/50 79/387/50 69/388/50
f 79/387/50 77/389/50 69/388/50
f 99/390/45 80/391/45 55/392/45
f 80/391/45 82/393/45 55/392/45
f 82/393/45 50/394/45 55/392/45
f 41/395/50 48/396/50 103/397/147
f 48/396/50 47/398/148 103/397/147
f 79/399/45 102/400/45 64/401/45
f 77/402/45 79/399/45 64/401/45
f 77/402/45 64/401/45 69/403/45
f 34/404/50 33/405/50 98/406/122
f 27/407/121 34/404/50 98/406/122
f 53/408/45 51/409/45 76/410/45
f 53/408/45 76/410/45 72/411/45
f 53/408/45 72/411/45 83/412/45
f 84/413/86 29/414/50 28/415/87
f 84/413/86 31/416/50 29/414/50
f 67/417/45 65/418/45 75/419/45
f 65/418/45 73/420/45 75/419/45
f 65/418/45 87/421/45 73/420/45
f 88/422/109 46/423/108 45/424/50
f 88/422/109 45/424/50 44/425/50
