# Blender v2.92.0 OBJ File: ''
# www.blender.org
mtllib diablo_LoD_4.mtl
o SM_HandTruck_Mesh.004
v -0.014238 0.156242 -0.200000
v -0.014238 0.016242 -0.200000
v -0.172753 0.133719 -0.200000
v -0.014238 0.156242 0.200000
v -0.014238 0.016242 0.200000
v -0.037040 0.019575 -0.226500
v 0.262960 0.012909 -0.226500
v 0.262960 0.019575 0.226500
v -0.037040 0.012909 0.226500
v -0.008331 0.823842 0.193600
v -0.001665 0.823842 -0.200000
v -0.021665 0.823842 -0.200000
v -0.001665 0.773842 0.193600
v -0.021665 0.773842 0.193600
v -0.008331 0.773842 -0.200000
v -0.021665 0.573842 0.193600
v -0.001665 0.573842 0.193600
v -0.014998 0.573842 -0.200000
v -0.014998 0.523842 0.193600
v -0.001665 0.523842 -0.200000
v -0.021665 0.523842 -0.200000
v -0.008331 0.323842 0.193600
v -0.014998 0.323842 -0.200000
v -0.001665 0.273842 0.193600
v -0.001665 0.273842 -0.200000
v -0.021665 0.273842 0.193600
v -0.021665 0.273842 -0.200000
v -0.008331 0.073842 0.193600
v -0.014998 0.073842 -0.200000
v -0.001665 0.023842 0.193600
v -0.001665 0.023842 -0.200000
v -0.021665 0.023842 0.193600
v -0.021665 0.023842 -0.200000
v -0.135005 0.112452 -0.312152
v -0.138847 0.141444 -0.312152
v -0.214530 0.017798 0.233190
v -0.182466 0.005664 0.299382
v -0.259211 0.098220 0.298722
v -0.077553 0.149832 0.291323
v -0.110913 0.070831 0.294333
v -0.150124 0.186484 0.293957
v -0.198793 0.104360 0.292838
v -0.077750 0.150562 0.242276
v -0.150137 0.186474 0.239344
v -0.198793 0.104360 0.240466
v -0.108724 0.068283 0.294680
v -0.202566 0.148269 0.294774
v -0.168558 0.072110 0.238664
v -0.075282 0.104845 0.238679
v -0.087872 0.163146 0.294665
v -0.168058 0.189057 0.238792
v -0.121516 0.127887 0.312152
v -0.150508 0.124045 0.312152
v -0.136960 0.126000 0.221152
v 0.010187 0.822829 -0.200264
v 0.002525 0.016242 -0.183633
v -0.136960 0.126000 -0.221152
v -0.014892 0.153814 -0.299049
v -0.013540 0.147017 -0.234256
v -0.091455 0.246336 -0.299382
v -0.214530 0.017798 -0.233190
v -0.245162 0.203570 -0.233190
v -0.084047 0.243268 -0.233922
v -0.250032 0.196281 -0.300114
v -0.074632 0.132538 -0.292618
v -0.080546 0.089662 -0.241342
v -0.105363 0.072110 -0.238665
v -0.087872 0.163146 -0.294665
v -0.108724 0.068283 -0.294680
v -0.202566 0.148269 -0.294774
v -0.168558 0.179890 -0.238665
v -0.083070 0.157598 -0.238666
v -0.120524 0.134886 -0.245000
v -0.117381 0.123816 0.245000
v -0.145882 0.109528 0.245000
v -0.134812 0.106385 -0.245000
v -0.149564 0.141998 0.245000
v -0.152994 0.138568 -0.245000
v -0.172753 0.133720 0.200000
v -0.190851 0.094402 -0.238666
v -0.047209 1.049271 -0.218362
v -0.034445 0.016242 -0.205145
v -0.065806 1.132137 0.140404
v -0.074987 1.122751 -0.165537
v -0.078412 1.086291 0.174431
v -0.052019 1.059156 0.216167
v -0.005228 0.833808 0.221997
v -0.033674 0.016242 0.208040
v 0.009427 0.016242 0.206170
v -0.038041 1.100197 0.179224
v -0.037678 1.097906 -0.180656
v 0.004294 0.016242 -0.213205
v -0.005639 0.016242 0.180104
v -0.003756 0.811076 0.178288
v -0.039762 0.979122 0.186062
v -0.054279 1.087300 0.142193
v -0.071580 1.088682 -0.143134
v -0.038501 1.055748 -0.178219
v -0.230675 0.214021 0.299539
v -0.091455 0.246336 0.299382
v -0.014892 0.153814 0.299049
v -0.043198 0.037908 0.299382
v -0.207241 0.012928 -0.300114
v -0.196057 0.113849 -0.294459
v -0.136960 0.061834 -0.292722
v -0.043198 0.037908 -0.299382
v -0.155960 0.188145 -0.293632
v -0.048868 0.032238 -0.233922
v -0.136286 0.190404 -0.241846
v -0.192082 0.151565 -0.238853
v -0.176084 0.077090 -0.238585
v -0.110913 0.070831 0.238972
v -0.013540 0.147017 0.234256
v -0.048868 0.032238 0.233922
v -0.106702 0.255650 0.233190
v -0.254228 0.178913 0.233922
vt 0.425781 0.029297
vt 0.748047 0.029297
vt 0.748047 0.243164
vt 0.425781 0.243164
vt 0.100586 0.029297
vt 0.422852 0.029297
vt 0.422852 0.243164
vt 0.100586 0.243164
vt 0.378906 0.288086
vt 0.658691 0.283203
vt 0.658691 0.297852
vt 0.410156 0.616699
vt 0.410156 0.581055
vt 0.689941 0.581055
vt 0.689941 0.616699
vt 0.141602 0.905884
vt 0.141602 0.891602
vt 0.421631 0.901123
vt 0.380859 0.280762
vt 0.380859 0.245117
vt 0.660645 0.245117
vt 0.660645 0.280762
vt 0.478516 0.919556
vt 0.478516 0.905273
vt 0.758301 0.914795
vt 0.717773 0.876465
vt 0.717773 0.840820
vt 0.997559 0.840820
vt 0.997559 0.876465
vt 0.408203 0.623942
vt 0.687988 0.619141
vt 0.687988 0.633545
vt 0.412109 0.578613
vt 0.412109 0.542969
vt 0.691895 0.542969
vt 0.691895 0.578613
vt 0.075195 0.632324
vt 0.075195 0.596680
vt 0.355225 0.596680
vt 0.355225 0.632324
vt 0.137695 0.939056
vt 0.137695 0.924805
vt 0.417725 0.924805
vt 0.417725 0.939056
vt 0.044922 0.594238
vt 0.044922 0.558594
vt 0.324951 0.558594
vt 0.324951 0.594238
vt 0.143555 0.889160
vt 0.143555 0.853516
vt 0.423584 0.853516
vt 0.423584 0.889160
vt 0.096680 0.297852
vt 0.096680 0.283203
vt 0.376709 0.283203
vt 0.376709 0.297852
vt 0.098633 0.280762
vt 0.098633 0.245117
vt 0.378662 0.245117
vt 0.378662 0.280762
vt 0.871472 0.488281
vt 0.865661 0.448242
vt 0.941589 0.448242
vt 0.945636 0.488281
vt 0.987305 0.448242
vt 0.987305 0.488281
vt 0.886540 0.572021
vt 0.879194 0.532227
vt 0.970361 0.532227
vt 0.976134 0.572021
vt 0.872185 0.530029
vt 0.887403 0.490234
vt 0.939750 0.530029
vt 0.970361 0.490234
vt 0.987305 0.530029
vt 0.724409 0.624756
vt 0.744090 0.584961
vt 0.813790 0.624756
vt 0.825195 0.584961
vt 0.036613 0.204102
vt 0.050786 0.162109
vt 0.080516 0.204102
vt 0.090088 0.162109
vt 0.536133 0.775391
vt 0.548910 0.733469
vt 0.579976 0.775391
vt 0.592211 0.733643
vt 0.881104 0.762695
vt 0.914228 0.720703
vt 0.924989 0.762695
vt 0.924805 0.620868
vt 0.992188 0.624729
vt 0.924805 0.631104
vt 0.924805 0.633789
vt 0.992188 0.639314
vt 0.924805 0.645865
vt 0.988160 0.024294
vt 0.908203 0.091309
vt 0.854492 0.007324
vt 0.067114 0.444357
vt 0.053650 0.429688
vt 0.079088 0.433338
vt 0.234497 0.472656
vt 0.820312 0.453429
vt 0.819824 0.439941
vt 0.910156 0.181152
vt 0.856445 0.097168
vt 0.991505 0.116373
vt 0.857422 0.267578
vt 0.911133 0.183594
vt 0.992482 0.248373
vt 0.900208 0.574219
vt 0.976136 0.574219
vt 0.970325 0.614014
vt 0.896161 0.614014
vt 0.854492 0.574219
vt 0.854492 0.614014
vt 0.810205 0.582764
vt 0.719037 0.582764
vt 0.717673 0.542969
vt 0.815978 0.542969
vt 0.970361 0.404297
vt 0.879194 0.404297
vt 0.877829 0.364258
vt 0.974426 0.364258
vt 0.970361 0.446289
vt 0.887376 0.446289
vt 0.886519 0.406250
vt 0.974426 0.406250
vt 0.046096 0.074361
vt 0.087036 0.074707
vt 0.086700 0.116211
vt 0.042781 0.116211
vt 0.210017 0.775391
vt 0.169067 0.775391
vt 0.206130 0.733487
vt 0.162476 0.733643
vt 0.397481 0.775391
vt 0.356812 0.733398
vt 0.400768 0.733591
vt 0.356567 0.775391
vt 0.250977 0.839880
vt 0.318359 0.838567
vt 0.318359 0.848755
vt 0.624023 0.473981
vt 0.556641 0.480957
vt 0.556641 0.467810
vt 0.298828 0.429524
vt 0.661621 0.421875
vt 0.661621 0.437350
vt 0.413574 0.499023
vt 0.413574 0.514404
vt 0.050781 0.507180
vt 0.778809 0.504883
vt 0.778809 0.521501
vt 0.416016 0.520295
vt 0.416016 0.504883
vt 0.411621 0.526367
vt 0.411621 0.539551
vt 0.048828 0.539551
vt 0.048828 0.524170
vt 0.909180 0.272461
vt 0.989137 0.339475
vt 0.855469 0.356445
vt 0.670909 0.794067
vt 0.708008 0.794006
vt 0.678429 0.835938
vt 0.079157 0.160156
vt 0.038223 0.160156
vt 0.055614 0.118506
vt 0.086656 0.390817
vt 0.254883 0.361328
vt 0.841797 0.379883
vt 0.841309 0.393992
vt 0.466890 0.884206
vt 0.490234 0.882629
vt 0.513277 0.895523
vt 0.530382 0.878095
vt 0.732459 0.895266
vt 0.708335 0.878048
vt 0.746582 0.882629
vt 0.769535 0.883648
vt 0.812500 0.436523
vt 0.793113 0.422711
vt 0.835209 0.435049
vt 0.031622 0.424020
vt 0.031250 0.411133
vt 0.617725 0.400477
vt 0.093613 0.878089
vt 0.062061 0.828457
vt 0.116950 0.825080
vt 0.008362 0.787589
vt 0.056514 0.753811
vt 0.057790 0.811738
vt 0.852051 0.342501
vt 0.852051 0.358887
vt 0.242055 0.354821
vt 0.242064 0.337904
vt 0.036617 0.375072
vt 0.079829 0.361637
vt 0.053983 0.345093
vt 0.039029 0.392026
vt 0.028095 0.584390
vt 0.037208 0.624354
vt 0.058639 0.625484
vt 0.054703 0.652694
vt 0.242012 0.651365
vt 0.852051 0.641546
vt 0.852051 0.660343
vt 0.039177 0.482614
vt 0.039490 0.470215
vt 0.624700 0.497476
vt 0.780576 0.471918
vt 0.805664 0.459961
vt 0.806889 0.472914
vt 0.849609 0.321603
vt 0.241699 0.331543
vt 0.117918 0.307326
vt 0.241699 0.306641
vt 0.075149 0.328369
vt 0.039675 0.295281
vt 0.012692 0.277775
vt 0.031105 0.060409
vt 0.021470 0.050191
vt 0.080839 0.005532
vt 0.242091 0.020582
vt 0.849609 0.012555
vt 0.076391 0.689561
vt 0.049431 0.734841
vt 0.007317 0.701762
vt 0.035898 0.657910
vt 0.768218 0.101009
vt 0.762984 0.048371
vt 0.819776 0.088847
vt 0.812588 0.037702
vt 0.750977 0.237123
vt 0.766894 0.204803
vt 0.779726 0.269430
vt 0.821685 0.224513
vt 0.830133 0.152435
vt 0.792955 0.189666
vt 0.754795 0.145414
vt 0.801123 0.119342
vt 0.782145 0.678283
vt 0.764880 0.735117
vt 0.727574 0.688845
vt 0.729694 0.764772
vt 0.782145 0.761229
vt 0.785727 0.813745
vt 0.733196 0.817297
vt 0.750185 0.950124
vt 0.769727 0.931152
vt 0.971881 0.941931
vt 0.296083 0.723686
vt 0.346545 0.739446
vt 0.304456 0.804786
vt 0.364057 0.672174
vt 0.452776 0.712169
vt 0.403134 0.724616
vt 0.362510 0.795793
vt 0.392855 0.844611
vt 0.410969 0.778701
vt 0.461167 0.795012
vt 0.609000 0.754177
vt 0.622981 0.698166
vt 0.626139 0.815688
vt 0.573977 0.720593
vt 0.514954 0.687221
vt 0.567350 0.797172
vt 0.519588 0.832526
vt 0.525342 0.753814
vt 0.475527 0.760627
vt 0.224597 0.747108
vt 0.172562 0.723198
vt 0.262021 0.707925
vt 0.275225 0.790559
vt 0.210492 0.843528
vt 0.182925 0.795553
vt 0.114863 0.792441
vt 0.149645 0.767740
vt 0.157058 0.682391
vt 0.892998 0.705380
vt 0.866801 0.754096
vt 0.813576 0.743229
vt 0.905534 0.785930
vt 0.869018 0.821795
vt 0.857442 0.671855
vt 0.964143 0.688491
vt 0.974963 0.796575
vt 0.940232 0.739332
vn -0.6672 -0.0168 0.7447
vn -0.6672 0.0168 -0.7447
vn 0.6672 -0.0168 -0.7447
vn 0.6672 0.0168 0.7447
vn 0.0802 0.9957 0.0460
vn 0.7558 0.6547 0.0128
vn -0.7864 0.6174 -0.0222
vn 0.7558 -0.6547 -0.0128
vn 0.0802 -0.9957 -0.0460
vn -0.7864 -0.6174 0.0222
vn -0.7558 0.6547 -0.0128
vn 0.7864 0.6174 0.0222
vn -0.0802 0.9957 -0.0460
vn -0.0802 -0.9957 0.0460
vn 0.7864 -0.6174 -0.0222
vn -0.7558 -0.6547 0.0128
vn 0.0693 0.9969 0.0373
vn 0.7524 -0.6587 0.0000
vn 0.7897 -0.6133 -0.0123
vn -0.0693 0.9969 -0.0373
vn -0.7897 -0.6133 0.0123
vn -0.7524 -0.6587 0.0000
vn 0.5544 -0.5424 0.6312
vn 0.4943 -0.5998 -0.6292
vn 0.7455 0.1548 -0.6483
vn 0.7353 0.2098 0.6445
vn 0.1615 0.7758 -0.6100
vn 0.3147 0.6945 0.6470
vn -0.1804 -0.7644 0.6189
vn -0.4659 -0.6375 -0.6137
vn -0.5267 0.6043 0.5979
vn -0.7114 0.3054 -0.6330
vn -0.7851 -0.1818 0.5921
vn 0.2946 -0.7700 0.5659
vn 0.8064 -0.1988 -0.5569
vn 0.6477 0.5808 0.4930
vn -0.3071 0.8106 -0.4987
vn -0.8365 0.1978 0.5111
vn -0.4986 -0.7174 -0.4866
vn -0.4089 0.3370 0.8480
vn -0.4738 0.4359 0.7651
vn -0.3389 0.3567 0.8706
vn -1.0000 0.0000 0.0000
vn -0.2120 -0.2398 0.9474
vn -0.6115 -0.7901 -0.0420
vn -0.5361 0.7415 -0.4035
vn 0.9969 0.0422 -0.0664
vn 0.4768 -0.0295 0.8785
vn -0.9852 -0.0534 -0.1631
vn -0.0560 0.6146 0.7868
vn -0.0708 0.0807 0.9942
vn -0.5832 0.4515 0.6753
vn 0.7535 0.1128 0.6477
vn 0.4821 -0.6088 0.6300
vn 0.5336 -0.5584 -0.6352
vn 0.7378 0.1754 -0.6519
vn 0.2733 0.7218 0.6358
vn 0.2055 0.7523 -0.6259
vn -0.5082 -0.6148 0.6031
vn -0.4185 -0.6690 -0.6143
vn -0.6421 0.4602 0.6131
vn -0.7010 0.3729 -0.6080
vn 0.7262 0.3844 0.5700
vn 0.4369 -0.6820 0.5865
vn 0.3285 -0.7367 -0.5910
vn 0.6216 0.5008 -0.6023
vn -0.6991 -0.5231 0.4875
vn -0.7844 0.2501 -0.5676
vn -0.3372 0.7837 0.5217
vn -0.4738 0.4359 -0.7651
vn -0.3769 0.3139 -0.8714
vn -0.3755 0.3825 -0.8442
vn 0.9992 -0.0250 0.0324
vn 0.0250 -0.9992 -0.0324
vn 0.8778 0.4787 -0.0193
vn -0.4787 -0.8778 0.0193
vn -0.5542 0.8320 0.0252
vn -0.8320 0.5542 -0.0252
vn -0.2993 0.1956 -0.9339
vn 0.6554 -0.0181 -0.7550
vn -0.1219 0.1414 0.9824
vn 0.7175 0.5707 0.3993
vn -0.2089 0.9657 0.1540
vn 0.8187 0.5127 -0.2584
vn -0.9608 0.0881 0.2628
vn -0.9178 -0.0250 0.3962
vn 0.8790 -0.0199 0.4764
vn 0.4028 0.1114 0.9085
vn 0.1301 -0.0026 -0.9915
vn 0.5994 0.0253 -0.8000
vn -0.8566 -0.1795 -0.4837
vn 0.4072 -0.8745 -0.2634
vn 0.0836 0.0293 -0.9961
vn 0.0360 -0.0794 -0.9962
vn -0.0724 -0.0191 -0.9972
vn -0.0232 0.0739 -0.9970
vn 0.0254 -0.0717 0.9971
vn 0.0558 0.0208 0.9982
vn -0.0701 -0.0078 0.9975
vn -0.0279 0.0641 0.9975
vn 0.0913 0.0088 0.9958
vn 0.0513 0.0491 0.9975
vn 0.0062 -0.0857 0.9963
vn -0.0493 0.0479 0.9976
vn 0.0896 0.0163 -0.9958
vn 0.0292 -0.0757 -0.9967
vn -0.0578 -0.0084 -0.9983
vn 0.0009 0.0821 -0.9966
usemtl WorldGridMaterial.002
s 1
f 9/1/1 6/2/2 7/3/3
f 9/1/1 7/3/3 8/4/4
f 6/5/2 9/6/1 8/7/4
f 6/5/2 8/7/4 7/8/3
f 10/9/5 11/10/6 12/11/7
f 10/12/5 13/13/8 15/14/9
f 10/12/5 15/14/9 11/15/6
f 13/16/8 14/17/10 15/18/9
f 14/19/10 10/20/5 12/21/7
f 14/19/10 12/21/7 15/22/9
f 16/23/11 17/24/12 18/25/13
f 17/26/12 19/27/14 20/28/15
f 17/26/12 20/28/15 18/29/13
f 19/30/14 21/31/16 20/32/15
f 19/33/14 16/34/11 18/35/13
f 19/33/14 18/35/13 21/36/16
f 22/37/17 24/38/18 25/39/19
f 22/37/17 25/39/19 23/40/20
f 24/41/18 26/42/21 27/43/22
f 24/41/18 27/43/22 25/44/19
f 26/45/21 22/46/17 23/47/20
f 26/45/21 23/47/20 27/48/22
f 28/49/17 30/50/18 31/51/19
f 28/49/17 31/51/19 29/52/20
f 30/53/18 32/54/21 33/55/22
f 30/53/18 33/55/22 31/56/19
f 32/57/21 28/58/17 29/59/20
f 32/57/21 29/59/20 33/60/22
f 102/61/23 114/62/24 113/63/25
f 102/61/23 113/63/25 101/64/26
f 101/64/26 113/63/25 115/65/27
f 101/64/26 115/65/27 100/66/28
f 37/67/29 36/68/30 114/69/24
f 37/67/29 114/69/24 102/70/23
f 99/71/31 116/72/32 38/73/33
f 38/73/33 116/72/32 36/74/30
f 38/73/33 36/74/30 37/75/29
f 100/76/28 115/77/27 99/78/31
f 99/78/31 115/77/27 116/79/32
f 46/80/34 49/81/35 50/82/36
f 49/81/35 51/83/37 50/82/36
f 47/84/38 48/85/39 46/86/34
f 48/85/39 49/87/35 46/86/34
f 50/88/36 51/89/37 47/90/38
f 53/91/40 54/92/41 52/93/42
f 52/94/42 54/95/41 53/96/40
f 3/97/43 1/98/43 2/99/43
f 98/100/44 97/101/45 84/102/46
f 55/103/47 98/100/44 56/104/48
f 98/100/44 82/105/49 56/104/48
f 4/106/50 5/107/51 79/108/52
f 2/109/43 1/110/43 3/111/43
f 59/112/53 108/113/54 106/114/55
f 59/112/53 106/114/55 58/115/56
f 63/116/57 59/112/53 58/115/56
f 63/116/57 58/115/56 60/117/58
f 108/118/54 61/119/59 103/120/60
f 108/118/54 103/120/60 106/121/55
f 61/122/59 62/123/61 64/124/62
f 61/122/59 64/124/62 103/125/60
f 62/126/61 63/127/57 60/128/58
f 62/126/61 60/128/58 64/129/62
f 72/130/63 67/131/64 69/132/65
f 72/130/63 69/132/65 68/133/66
f 67/134/64 80/135/67 69/136/65
f 80/135/67 70/137/68 69/136/65
f 71/138/69 68/139/66 70/140/68
f 71/138/69 72/141/63 68/139/66
f 57/142/70 34/143/71 35/144/72
f 57/145/70 35/146/72 34/147/71
f 74/148/73 76/149/74 73/150/75
f 74/151/73 75/152/76 76/153/74
f 75/154/76 77/155/77 78/156/78
f 75/154/76 78/156/78 76/157/74
f 77/158/77 74/159/73 73/160/75
f 77/158/77 73/160/75 78/161/78
f 4/162/50 79/163/52 5/164/51
f 51/165/37 48/166/39 47/167/38
f 80/168/67 71/169/69 70/170/68
f 81/171/79 55/172/47 92/173/80
f 81/171/79 92/173/80 82/174/49
f 86/175/81 90/176/82 83/177/83
f 83/177/83 90/178/82 84/179/46
f 90/178/82 91/180/84 84/179/46
f 84/179/46 91/181/84 81/182/79
f 85/183/85 86/184/81 83/185/83
f 88/186/86 89/187/87 87/188/88
f 47/189/38 46/190/34 50/191/36
f 69/192/65 70/193/68 68/194/66
f 89/195/87 93/196/89 94/197/90
f 89/195/87 94/197/90 87/198/88
f 87/198/88 94/197/90 90/199/82
f 94/197/90 95/200/91 90/199/82
f 87/198/88 90/199/82 86/201/81
f 90/199/82 95/200/91 96/202/92
f 90/199/82 96/202/92 97/203/45
f 90/199/82 97/203/45 91/204/84
f 91/204/84 97/203/45 98/205/44
f 81/206/79 91/204/84 55/207/47
f 91/204/84 98/205/44 55/207/47
f 55/207/47 56/208/48 92/209/80
f 93/210/89 88/211/86 94/212/90
f 95/213/91 85/214/85 96/215/92
f 88/216/86 87/217/88 95/218/91
f 88/216/86 95/218/91 94/219/90
f 95/218/91 87/217/88 86/220/81
f 95/218/91 86/220/81 85/221/85
f 85/221/85 83/222/83 97/223/45
f 83/222/83 84/224/46 97/223/45
f 84/224/46 81/225/79 98/226/44
f 98/226/44 81/225/79 82/227/49
f 45/228/93 44/229/94 43/230/95
f 45/228/93 43/230/95 112/231/96
f 41/232/97 42/233/98 39/234/99
f 42/233/98 40/235/100 39/234/99
f 110/236/101 111/237/102 109/238/103
f 111/237/102 66/239/104 109/238/103
f 104/240/105 107/241/106 65/242/107
f 104/240/105 65/242/107 105/243/108
f 48/244/39 51/245/37 49/246/35
f 80/247/67 67/248/64 72/249/63
f 71/250/69 80/247/67 72/249/63
f 96/251/92 85/252/85 97/253/45
f 38/254/33 42/255/98 99/256/31
f 37/257/29 42/255/98 38/254/33
f 102/258/23 40/259/100 37/257/29
f 40/259/100 42/255/98 37/257/29
f 99/256/31 42/255/98 41/260/97
f 99/256/31 41/260/97 100/261/28
f 100/261/28 41/260/97 39/262/99
f 100/261/28 39/262/99 101/263/26
f 101/263/26 39/262/99 40/259/100
f 101/263/26 40/259/100 102/258/23
f 104/264/105 103/265/60 64/266/62
f 104/264/105 105/267/108 103/265/60
f 105/267/108 106/268/55 103/265/60
f 107/269/106 104/264/105 64/266/62
f 107/269/106 64/266/62 60/270/58
f 65/271/107 107/269/106 60/270/58
f 65/271/107 60/270/58 58/272/56
f 65/271/107 58/272/56 106/268/55
f 105/267/108 65/271/107 106/268/55
f 66/273/104 111/274/102 108/275/54
f 66/273/104 108/275/54 59/276/53
f 66/273/104 59/276/53 63/277/57
f 109/278/103 66/273/104 63/277/57
f 109/278/103 63/277/57 62/279/61
f 110/280/101 109/278/103 62/279/61
f 111/274/102 110/280/101 62/279/61
f 111/274/102 62/279/61 61/281/59
f 111/274/102 61/281/59 108/275/54
f 112/282/96 43/283/95 113/284/25
f 43/283/95 44/285/94 115/286/27
f 114/287/24 112/282/96 113/284/25
f 113/284/25 43/283/95 115/286/27
f 36/288/30 112/282/96 114/287/24
f 115/286/27 44/285/94 116/289/32
f 44/285/94 45/290/93 116/289/32
f 116/289/32 45/290/93 36/288/30
f 36/288/30 45/290/93 112/282/96
